# xmcd
#
# Track frame offsets: 
#        150
#        25840
#        42917
#        65745
#        81357
#        104442
#        116855
#        137455
#
# Disc length: 2160 seconds
#
# Revision: 1
# Processed by: cddbd v1.5.1PL0 Copyright (c) Steve Scherf et al.
# Submitted via: ExactAudioCopy v0.95b2
#
DISCID=6d086e08
DTITLE=Kessel, Barney - Limehouse Blues (w Stephane Grappelli)
DYEAR=1972
DGENRE=Jazz
TTITLE0=It Don't Mean A Thing (If It Ain't Got That Swing)
TTITLE1=Out Of Nowhere
TTITLE2=Tea For Two
TTITLE3=Limehouse Blues
TTITLE4=How High The Moon
TTITLE5=Willow Weep For Me
TTITLE6=Little Star
TTITLE7=Undecided
EXTD=YEAR: 1972
EXTT0=
EXTT1=
EXTT2=
EXTT3=
EXTT4=
EXTT5=
EXTT6=
EXTT7=
PLAYORDER=
